<svg width="1727" height="575" viewBox="0 0 1727 575" fill="none" xmlns="http://www.w3.org/2000/svg">
<foreignObject x="-86" y="7.07202" width="1870.77" height="359.456"><div xmlns="http://www.w3.org/1999/xhtml" style="backdrop-filter:blur(43px);clip-path:url(#bgblur_0_725_10_clip_path);height:100%;width:100%"></div></foreignObject><g data-figma-bg-blur-radius="86">
<mask id="path-1-outside-1_725_10" maskUnits="userSpaceOnUse" x="-0.402954" y="93" width="1700" height="188" fill="black">
<rect fill="white" x="-0.402954" y="93" width="1700" height="188"/>
<path d="M3.06905 275L80.9371 98.6H130.077L208.197 275H156.285L95.3011 123.044H114.957L53.973 275H3.06905ZM45.657 240.728L58.509 203.936H144.693L157.545 240.728H45.657ZM222.343 275V98.6H302.983C319.111 98.6 332.971 101.204 344.563 106.412C356.323 111.62 365.395 119.18 371.779 129.092C378.163 138.836 381.355 150.428 381.355 163.868C381.355 177.14 378.163 188.648 371.779 198.392C365.395 207.968 356.323 215.36 344.563 220.568C332.971 225.608 319.111 228.128 302.983 228.128H250.063L272.239 207.212V275H222.343ZM331.459 275L287.611 210.74H340.783L384.883 275H331.459ZM272.239 212.504L250.063 189.572H299.959C310.375 189.572 318.103 187.304 323.143 182.768C328.351 178.232 330.955 171.932 330.955 163.868C330.955 155.636 328.351 149.252 323.143 144.716C318.103 140.18 310.375 137.912 299.959 137.912H250.063L272.239 114.98V212.504ZM496.83 278.528C482.886 278.528 469.95 276.344 458.022 271.976C446.262 267.44 436.014 261.056 427.278 252.824C418.71 244.592 411.99 234.932 407.118 223.844C402.246 212.588 399.81 200.24 399.81 186.8C399.81 173.36 402.246 161.096 407.118 150.008C411.99 138.752 418.71 129.008 427.278 120.776C436.014 112.544 446.262 106.244 458.022 101.876C469.95 97.34 482.886 95.072 496.83 95.072C513.126 95.072 527.658 97.928 540.426 103.64C553.362 109.352 564.114 117.584 572.682 128.336L540.93 157.064C535.218 150.344 528.918 145.22 522.03 141.692C515.31 138.164 507.75 136.4 499.35 136.4C492.126 136.4 485.49 137.576 479.442 139.928C473.394 142.28 468.186 145.724 463.818 150.26C459.618 154.628 456.258 159.92 453.738 166.136C451.386 172.352 450.21 179.24 450.21 186.8C450.21 194.36 451.386 201.248 453.738 207.464C456.258 213.68 459.618 219.056 463.818 223.592C468.186 227.96 473.394 231.32 479.442 233.672C485.49 236.024 492.126 237.2 499.35 237.2C507.75 237.2 515.31 235.436 522.03 231.908C528.918 228.38 535.218 223.256 540.93 216.536L572.682 245.264C564.114 255.848 553.362 264.08 540.426 269.96C527.658 275.672 513.126 278.528 496.83 278.528ZM712.864 98.6H762.76V275H712.864V98.6ZM644.824 275H594.928V98.6H644.824V275ZM716.392 206.204H641.296V164.876H716.392V206.204ZM797.956 275V98.6H847.852V275H797.956ZM920.898 275V138.164H866.718V98.6H1024.72V138.164H970.794V275H920.898ZM1089.18 166.892H1171.08V204.188H1089.18V166.892ZM1092.7 236.444H1184.94V275H1043.31V98.6H1181.66V137.156H1092.7V236.444ZM1300.57 278.528C1286.63 278.528 1273.69 276.344 1261.76 271.976C1250 267.44 1239.76 261.056 1231.02 252.824C1222.45 244.592 1215.73 234.932 1210.86 223.844C1205.99 212.588 1203.55 200.24 1203.55 186.8C1203.55 173.36 1205.99 161.096 1210.86 150.008C1215.73 138.752 1222.45 129.008 1231.02 120.776C1239.76 112.544 1250 106.244 1261.76 101.876C1273.69 97.34 1286.63 95.072 1300.57 95.072C1316.87 95.072 1331.4 97.928 1344.17 103.64C1357.1 109.352 1367.86 117.584 1376.42 128.336L1344.67 157.064C1338.96 150.344 1332.66 145.22 1325.77 141.692C1319.05 138.164 1311.49 136.4 1303.09 136.4C1295.87 136.4 1289.23 137.576 1283.18 139.928C1277.14 142.28 1271.93 145.724 1267.56 150.26C1263.36 154.628 1260 159.92 1257.48 166.136C1255.13 172.352 1253.95 179.24 1253.95 186.8C1253.95 194.36 1255.13 201.248 1257.48 207.464C1260 213.68 1263.36 219.056 1267.56 223.592C1271.93 227.96 1277.14 231.32 1283.18 233.672C1289.23 236.024 1295.87 237.2 1303.09 237.2C1311.49 237.2 1319.05 235.436 1325.77 231.908C1332.66 228.38 1338.96 223.256 1344.67 216.536L1376.42 245.264C1367.86 255.848 1357.1 264.08 1344.17 269.96C1331.4 275.672 1316.87 278.528 1300.57 278.528ZM1434.74 275V138.164H1380.56V98.6H1538.57V138.164H1484.64V275H1434.74ZM1618.65 278.528C1604.21 278.528 1590.26 276.764 1576.82 273.236C1563.55 269.54 1552.71 264.836 1544.31 259.124L1560.69 222.332C1568.59 227.372 1577.66 231.572 1587.91 234.932C1598.33 238.124 1608.66 239.72 1618.91 239.72C1625.79 239.72 1631.34 239.132 1635.54 237.956C1639.74 236.612 1642.76 234.932 1644.61 232.916C1646.63 230.732 1647.63 228.212 1647.63 225.356C1647.63 221.324 1645.79 218.132 1642.09 215.78C1638.39 213.428 1633.61 211.496 1627.73 209.984C1621.85 208.472 1615.29 206.96 1608.07 205.448C1601.01 203.936 1593.87 202.004 1586.65 199.652C1579.59 197.3 1573.13 194.276 1567.25 190.58C1561.37 186.716 1556.58 181.76 1552.88 175.712C1549.19 169.496 1547.34 161.684 1547.34 152.276C1547.34 141.692 1550.19 132.116 1555.91 123.548C1561.79 114.98 1570.52 108.092 1582.11 102.884C1593.71 97.676 1608.15 95.072 1625.46 95.072C1637.05 95.072 1648.39 96.416 1659.48 99.104C1670.73 101.624 1680.73 105.404 1689.47 110.444L1674.09 147.488C1665.69 142.952 1657.38 139.592 1649.15 137.408C1640.91 135.056 1632.93 133.88 1625.21 133.88C1618.32 133.88 1612.77 134.636 1608.57 136.148C1604.37 137.492 1601.35 139.34 1599.5 141.692C1597.65 144.044 1596.73 146.732 1596.73 149.756C1596.73 153.62 1598.49 156.728 1602.02 159.08C1605.72 161.264 1610.51 163.112 1616.39 164.624C1622.43 165.968 1628.99 167.396 1636.04 168.908C1643.27 170.42 1650.41 172.352 1657.46 174.704C1664.69 176.888 1671.24 179.912 1677.12 183.776C1683 187.472 1687.7 192.428 1691.23 198.644C1694.93 204.692 1696.77 212.336 1696.77 221.576C1696.77 231.824 1693.83 241.316 1687.95 250.052C1682.24 258.62 1673.59 265.508 1662 270.716C1650.57 275.924 1636.13 278.528 1618.65 278.528Z"/>
</mask>
<path d="M3.06905 275L80.9371 98.6H130.077L208.197 275H156.285L95.3011 123.044H114.957L53.973 275H3.06905ZM45.657 240.728L58.509 203.936H144.693L157.545 240.728H45.657ZM222.343 275V98.6H302.983C319.111 98.6 332.971 101.204 344.563 106.412C356.323 111.62 365.395 119.18 371.779 129.092C378.163 138.836 381.355 150.428 381.355 163.868C381.355 177.14 378.163 188.648 371.779 198.392C365.395 207.968 356.323 215.36 344.563 220.568C332.971 225.608 319.111 228.128 302.983 228.128H250.063L272.239 207.212V275H222.343ZM331.459 275L287.611 210.74H340.783L384.883 275H331.459ZM272.239 212.504L250.063 189.572H299.959C310.375 189.572 318.103 187.304 323.143 182.768C328.351 178.232 330.955 171.932 330.955 163.868C330.955 155.636 328.351 149.252 323.143 144.716C318.103 140.18 310.375 137.912 299.959 137.912H250.063L272.239 114.98V212.504ZM496.83 278.528C482.886 278.528 469.95 276.344 458.022 271.976C446.262 267.44 436.014 261.056 427.278 252.824C418.71 244.592 411.99 234.932 407.118 223.844C402.246 212.588 399.81 200.24 399.81 186.8C399.81 173.36 402.246 161.096 407.118 150.008C411.99 138.752 418.71 129.008 427.278 120.776C436.014 112.544 446.262 106.244 458.022 101.876C469.95 97.34 482.886 95.072 496.83 95.072C513.126 95.072 527.658 97.928 540.426 103.64C553.362 109.352 564.114 117.584 572.682 128.336L540.93 157.064C535.218 150.344 528.918 145.22 522.03 141.692C515.31 138.164 507.75 136.4 499.35 136.4C492.126 136.4 485.49 137.576 479.442 139.928C473.394 142.28 468.186 145.724 463.818 150.26C459.618 154.628 456.258 159.92 453.738 166.136C451.386 172.352 450.21 179.24 450.21 186.8C450.21 194.36 451.386 201.248 453.738 207.464C456.258 213.68 459.618 219.056 463.818 223.592C468.186 227.96 473.394 231.32 479.442 233.672C485.49 236.024 492.126 237.2 499.35 237.2C507.75 237.2 515.31 235.436 522.03 231.908C528.918 228.38 535.218 223.256 540.93 216.536L572.682 245.264C564.114 255.848 553.362 264.08 540.426 269.96C527.658 275.672 513.126 278.528 496.83 278.528ZM712.864 98.6H762.76V275H712.864V98.6ZM644.824 275H594.928V98.6H644.824V275ZM716.392 206.204H641.296V164.876H716.392V206.204ZM797.956 275V98.6H847.852V275H797.956ZM920.898 275V138.164H866.718V98.6H1024.72V138.164H970.794V275H920.898ZM1089.18 166.892H1171.08V204.188H1089.18V166.892ZM1092.7 236.444H1184.94V275H1043.31V98.6H1181.66V137.156H1092.7V236.444ZM1300.57 278.528C1286.63 278.528 1273.69 276.344 1261.76 271.976C1250 267.44 1239.76 261.056 1231.02 252.824C1222.45 244.592 1215.73 234.932 1210.86 223.844C1205.99 212.588 1203.55 200.24 1203.55 186.8C1203.55 173.36 1205.99 161.096 1210.86 150.008C1215.73 138.752 1222.45 129.008 1231.02 120.776C1239.76 112.544 1250 106.244 1261.76 101.876C1273.69 97.34 1286.63 95.072 1300.57 95.072C1316.87 95.072 1331.4 97.928 1344.17 103.64C1357.1 109.352 1367.86 117.584 1376.42 128.336L1344.67 157.064C1338.96 150.344 1332.66 145.22 1325.77 141.692C1319.05 138.164 1311.49 136.4 1303.09 136.4C1295.87 136.4 1289.23 137.576 1283.18 139.928C1277.14 142.28 1271.93 145.724 1267.56 150.26C1263.36 154.628 1260 159.92 1257.48 166.136C1255.13 172.352 1253.95 179.24 1253.95 186.8C1253.95 194.36 1255.13 201.248 1257.48 207.464C1260 213.68 1263.36 219.056 1267.56 223.592C1271.93 227.96 1277.14 231.32 1283.18 233.672C1289.23 236.024 1295.87 237.2 1303.09 237.2C1311.49 237.2 1319.05 235.436 1325.77 231.908C1332.66 228.38 1338.96 223.256 1344.67 216.536L1376.42 245.264C1367.86 255.848 1357.1 264.08 1344.17 269.96C1331.4 275.672 1316.87 278.528 1300.57 278.528ZM1434.74 275V138.164H1380.56V98.6H1538.57V138.164H1484.64V275H1434.74ZM1618.65 278.528C1604.21 278.528 1590.26 276.764 1576.82 273.236C1563.55 269.54 1552.71 264.836 1544.31 259.124L1560.69 222.332C1568.59 227.372 1577.66 231.572 1587.91 234.932C1598.33 238.124 1608.66 239.72 1618.91 239.72C1625.79 239.72 1631.34 239.132 1635.54 237.956C1639.74 236.612 1642.76 234.932 1644.61 232.916C1646.63 230.732 1647.63 228.212 1647.63 225.356C1647.63 221.324 1645.79 218.132 1642.09 215.78C1638.39 213.428 1633.61 211.496 1627.73 209.984C1621.85 208.472 1615.29 206.96 1608.07 205.448C1601.01 203.936 1593.87 202.004 1586.65 199.652C1579.59 197.3 1573.13 194.276 1567.25 190.58C1561.37 186.716 1556.58 181.76 1552.88 175.712C1549.19 169.496 1547.34 161.684 1547.34 152.276C1547.34 141.692 1550.19 132.116 1555.91 123.548C1561.79 114.98 1570.52 108.092 1582.11 102.884C1593.71 97.676 1608.15 95.072 1625.46 95.072C1637.05 95.072 1648.39 96.416 1659.48 99.104C1670.73 101.624 1680.73 105.404 1689.47 110.444L1674.09 147.488C1665.69 142.952 1657.38 139.592 1649.15 137.408C1640.91 135.056 1632.93 133.88 1625.21 133.88C1618.32 133.88 1612.77 134.636 1608.57 136.148C1604.37 137.492 1601.35 139.34 1599.5 141.692C1597.65 144.044 1596.73 146.732 1596.73 149.756C1596.73 153.62 1598.49 156.728 1602.02 159.08C1605.72 161.264 1610.51 163.112 1616.39 164.624C1622.43 165.968 1628.99 167.396 1636.04 168.908C1643.27 170.42 1650.41 172.352 1657.46 174.704C1664.69 176.888 1671.24 179.912 1677.12 183.776C1683 187.472 1687.7 192.428 1691.23 198.644C1694.93 204.692 1696.77 212.336 1696.77 221.576C1696.77 231.824 1693.83 241.316 1687.95 250.052C1682.24 258.62 1673.59 265.508 1662 270.716C1650.57 275.924 1636.13 278.528 1618.65 278.528Z" fill="#474747" fill-opacity="0.08"/>
<path d="M3.06905 275L1.23938 274.192L-3.8147e-06 277H3.06905V275ZM80.937 98.6V96.6H79.6337L79.1074 97.7923L80.937 98.6ZM130.077 98.6L131.906 97.7901L131.379 96.6H130.077V98.6ZM208.197 275V277H211.27L210.026 274.19L208.197 275ZM156.285 275L154.429 275.745L154.933 277H156.285V275ZM95.3011 123.044V121.044H92.3433L93.4449 123.789L95.3011 123.044ZM114.957 123.044L116.813 123.789L117.915 121.044H114.957V123.044ZM53.973 275V277H55.3254L55.8292 275.745L53.973 275ZM45.657 240.728L43.7689 240.068L42.8399 242.728H45.657V240.728ZM58.509 203.936V201.936H57.0892L56.6209 203.276L58.509 203.936ZM144.693 203.936L146.581 203.276L146.113 201.936H144.693V203.936ZM157.545 240.728V242.728H160.362L159.433 240.068L157.545 240.728ZM4.89871 275.808L82.7667 99.4077L79.1074 97.7923L1.23938 274.192L4.89871 275.808ZM80.937 100.6H130.077V96.6H80.937V100.6ZM128.248 99.4098L206.368 275.81L210.026 274.19L131.906 97.7901L128.248 99.4098ZM208.197 273H156.285V277H208.197V273ZM158.141 274.255L97.1572 122.299L93.4449 123.789L154.429 275.745L158.141 274.255ZM95.3011 125.044H114.957V121.044H95.3011V125.044ZM113.101 122.299L52.1169 274.255L55.8292 275.745L116.813 123.789L113.101 122.299ZM53.973 273H3.06905V277H53.973V273ZM47.5452 241.388L60.3972 204.596L56.6209 203.276L43.7689 240.068L47.5452 241.388ZM58.509 205.936H144.693V201.936H58.509V205.936ZM142.805 204.596L155.657 241.388L159.433 240.068L146.581 203.276L142.805 204.596ZM157.545 238.728H45.657V242.728H157.545V238.728ZM222.343 275H220.343V277H222.343V275ZM222.343 98.6V96.6H220.343V98.6H222.343ZM344.563 106.412L343.743 108.236L343.753 108.241L344.563 106.412ZM371.779 129.092L370.097 130.175L370.101 130.182L370.106 130.188L371.779 129.092ZM371.779 198.392L373.443 199.501L373.447 199.495L373.451 199.488L371.779 198.392ZM344.563 220.568L345.36 222.402L345.372 222.397L344.563 220.568ZM250.063 228.128L248.69 226.673L245.027 230.128H250.063V228.128ZM272.239 207.212H274.239V202.576L270.866 205.757L272.239 207.212ZM272.239 275V277H274.239V275H272.239ZM331.459 275L329.806 276.127L330.402 277H331.459V275ZM287.611 210.74V208.74H283.825L285.958 211.867L287.611 210.74ZM340.783 210.74L342.432 209.608L341.836 208.74H340.783V210.74ZM384.883 275V277H388.681L386.532 273.868L384.883 275ZM272.239 212.504L270.801 213.894L274.239 217.449V212.504H272.239ZM250.063 189.572V187.572H245.346L248.625 190.962L250.063 189.572ZM323.143 182.768L321.829 181.26L321.817 181.271L321.805 181.281L323.143 182.768ZM323.143 144.716L321.805 146.203L321.817 146.213L321.829 146.224L323.143 144.716ZM250.063 137.912L248.625 136.522L245.346 139.912H250.063V137.912ZM272.239 114.98H274.239V110.035L270.801 113.59L272.239 114.98ZM224.343 275V98.6H220.343V275H224.343ZM222.343 100.6H302.983V96.6H222.343V100.6ZM302.983 100.6C318.901 100.6 332.468 103.171 343.743 108.236L345.382 104.588C333.473 99.2371 319.32 96.6 302.983 96.6V100.6ZM343.753 108.241C355.189 113.306 363.944 120.621 370.097 130.175L373.46 128.009C366.845 117.739 357.456 109.934 345.372 104.583L343.753 108.241ZM370.106 130.188C376.245 139.559 379.355 150.756 379.355 163.868H383.355C383.355 150.1 380.08 138.113 373.451 127.996L370.106 130.188ZM379.355 163.868C379.355 176.806 376.248 187.921 370.106 197.296L373.451 199.488C380.078 189.375 383.355 177.474 383.355 163.868H379.355ZM370.114 197.283C363.965 206.506 355.207 213.666 343.753 218.739L345.372 222.397C357.438 217.054 366.824 209.43 373.443 199.501L370.114 197.283ZM343.765 218.734C332.484 223.639 318.909 226.128 302.983 226.128V230.128C319.312 230.128 333.457 227.577 345.36 222.402L343.765 218.734ZM302.983 226.128H250.063V230.128H302.983V226.128ZM251.435 229.583L273.611 208.667L270.866 205.757L248.69 226.673L251.435 229.583ZM270.239 207.212V275H274.239V207.212H270.239ZM272.239 273H222.343V277H272.239V273ZM333.111 273.873L289.263 209.613L285.958 211.867L329.806 276.127L333.111 273.873ZM287.611 212.74H340.783V208.74H287.611V212.74ZM339.133 211.872L383.233 276.132L386.532 273.868L342.432 209.608L339.133 211.872ZM384.883 273H331.459V277H384.883V273ZM273.676 211.114L251.5 188.182L248.625 190.962L270.801 213.894L273.676 211.114ZM250.063 191.572H299.959V187.572H250.063V191.572ZM299.959 191.572C310.613 191.572 318.92 189.259 324.48 184.255L321.805 181.281C317.285 185.349 310.136 187.572 299.959 187.572V191.572ZM324.456 184.276C330.175 179.295 332.955 172.403 332.955 163.868H328.955C328.955 171.461 326.526 177.169 321.829 181.26L324.456 184.276ZM332.955 163.868C332.955 155.179 330.184 148.197 324.456 143.208L321.829 146.224C326.517 150.307 328.955 156.093 328.955 163.868H332.955ZM324.48 143.229C318.92 138.225 310.613 135.912 299.959 135.912V139.912C310.136 139.912 317.285 142.135 321.805 146.203L324.48 143.229ZM299.959 135.912H250.063V139.912H299.959V135.912ZM251.5 139.302L273.676 116.37L270.801 113.59L248.625 136.522L251.5 139.302ZM270.239 114.98V212.504H274.239V114.98H270.239ZM458.022 271.976L457.302 273.842L457.318 273.848L457.334 273.854L458.022 271.976ZM427.278 252.824L425.892 254.266L425.899 254.273L425.906 254.28L427.278 252.824ZM407.118 223.844L405.282 224.638L405.287 224.649L407.118 223.844ZM407.118 150.008L408.949 150.813L408.953 150.802L407.118 150.008ZM427.278 120.776L425.906 119.32L425.899 119.327L425.892 119.334L427.278 120.776ZM458.022 101.876L458.718 103.751L458.725 103.748L458.732 103.745L458.022 101.876ZM540.426 103.64L539.609 105.466L539.618 105.47L540.426 103.64ZM572.682 128.336L574.023 129.819L575.416 128.559L574.246 127.09L572.682 128.336ZM540.93 157.064L539.406 158.359L540.742 159.931L542.271 158.547L540.93 157.064ZM522.03 141.692L521.1 143.463L521.109 143.467L521.118 143.472L522.03 141.692ZM479.442 139.928L480.166 141.792V141.792L479.442 139.928ZM463.818 150.26L462.377 148.873L462.376 148.874L463.818 150.26ZM453.738 166.136L451.884 165.385L451.875 165.406L451.867 165.428L453.738 166.136ZM453.738 207.464L451.867 208.172L451.875 208.194L451.884 208.215L453.738 207.464ZM463.818 223.592L462.35 224.951L462.376 224.979L462.403 225.006L463.818 223.592ZM479.442 233.672L480.166 231.808V231.808L479.442 233.672ZM522.03 231.908L521.118 230.128L521.109 230.133L521.1 230.137L522.03 231.908ZM540.93 216.536L542.271 215.053L540.742 213.669L539.406 215.241L540.93 216.536ZM572.682 245.264L574.236 246.522L575.427 245.051L574.023 243.781L572.682 245.264ZM540.426 269.96L541.242 271.786L541.253 271.781L540.426 269.96ZM496.83 276.528C483.097 276.528 470.396 274.378 458.709 270.098L457.334 273.854C469.503 278.31 482.674 280.528 496.83 280.528V276.528ZM458.741 270.11C447.211 265.663 437.187 259.414 428.649 251.368L425.906 254.28C434.84 262.698 445.312 269.217 457.302 273.842L458.741 270.11ZM428.663 251.382C420.288 243.335 413.717 233.893 408.949 223.039L405.287 224.649C410.262 235.971 417.131 245.849 425.892 254.266L428.663 251.382ZM408.953 223.05C404.2 212.067 401.81 199.993 401.81 186.8H397.81C397.81 200.487 400.292 213.109 405.282 224.638L408.953 223.05ZM401.81 186.8C401.81 173.606 404.2 161.62 408.949 150.813L405.287 149.203C400.291 160.572 397.81 173.114 397.81 186.8H401.81ZM408.953 150.802C413.723 139.782 420.293 130.26 428.663 122.218L425.892 119.334C417.126 127.756 410.256 137.722 405.282 149.214L408.953 150.802ZM428.649 122.232C437.182 114.191 447.197 108.03 458.718 103.751L457.325 100.001C445.326 104.458 434.845 110.897 425.906 119.32L428.649 122.232ZM458.732 103.745C470.413 99.3034 483.106 97.072 496.83 97.072V93.072C482.665 93.072 469.486 95.3766 457.311 100.007L458.732 103.745ZM496.83 97.072C512.89 97.072 527.137 99.886 539.609 105.466L541.242 101.814C528.178 95.97 513.361 93.072 496.83 93.072V97.072ZM539.618 105.47C552.267 111.055 562.757 119.09 571.117 129.582L574.246 127.09C565.471 116.078 554.456 107.649 541.233 101.81L539.618 105.47ZM571.34 126.853L539.588 155.581L542.271 158.547L574.023 129.819L571.34 126.853ZM542.453 155.769C536.595 148.876 530.094 143.575 522.941 139.912L521.118 143.472C527.742 146.865 533.84 151.812 539.406 158.359L542.453 155.769ZM522.959 139.921C515.923 136.227 508.038 134.4 499.35 134.4V138.4C507.461 138.4 514.696 140.101 521.1 143.463L522.959 139.921ZM499.35 134.4C491.906 134.4 485.021 135.612 478.717 138.064L480.166 141.792C485.959 139.54 492.346 138.4 499.35 138.4V134.4ZM478.717 138.064C472.407 140.518 466.952 144.121 462.377 148.873L465.258 151.647C469.419 147.327 474.38 144.042 480.166 141.792L478.717 138.064ZM462.376 148.874C457.982 153.444 454.49 158.958 451.884 165.385L455.591 166.887C458.026 160.882 461.254 155.812 465.259 151.646L462.376 148.874ZM451.867 165.428C449.419 171.899 448.21 179.031 448.21 186.8H452.21C452.21 179.449 453.353 172.805 455.608 166.844L451.867 165.428ZM448.21 186.8C448.21 194.569 449.419 201.701 451.867 208.172L455.608 206.756C453.353 200.795 452.21 194.151 452.21 186.8H448.21ZM451.884 208.215C454.487 214.636 457.972 220.223 462.35 224.951L465.285 222.233C461.263 217.889 458.028 212.724 455.591 206.713L451.884 208.215ZM462.403 225.006C466.977 229.58 472.424 233.089 478.717 235.536L480.166 231.808C474.364 229.551 469.394 226.34 465.232 222.178L462.403 225.006ZM478.717 235.536C485.021 237.988 491.906 239.2 499.35 239.2V235.2C492.346 235.2 485.959 234.06 480.166 231.808L478.717 235.536ZM499.35 239.2C508.038 239.2 515.923 237.373 522.959 233.679L521.1 230.137C514.696 233.499 507.461 235.2 499.35 235.2V239.2ZM522.941 233.688C530.094 230.025 536.595 224.724 542.453 217.831L539.406 215.241C533.84 221.788 527.742 226.735 521.118 230.128L522.941 233.688ZM539.588 218.019L571.34 246.747L574.023 243.781L542.271 215.053L539.588 218.019ZM571.127 244.006C562.763 254.338 552.264 262.382 539.598 268.139L541.253 271.781C554.459 265.778 565.464 257.358 574.236 246.522L571.127 244.006ZM539.609 268.134C527.137 273.714 512.89 276.528 496.83 276.528V280.528C513.361 280.528 528.178 277.63 541.242 271.786L539.609 268.134ZM712.864 98.6V96.6H710.864V98.6H712.864ZM762.76 98.6H764.76V96.6H762.76V98.6ZM762.76 275V277H764.76V275H762.76ZM712.864 275H710.864V277H712.864V275ZM644.824 275V277H646.824V275H644.824ZM594.928 275H592.928V277H594.928V275ZM594.928 98.6V96.6H592.928V98.6H594.928ZM644.824 98.6H646.824V96.6H644.824V98.6ZM716.392 206.204V208.204H718.392V206.204H716.392ZM641.296 206.204H639.296V208.204H641.296V206.204ZM641.296 164.876V162.876H639.296V164.876H641.296ZM716.392 164.876H718.392V162.876H716.392V164.876ZM712.864 100.6H762.76V96.6H712.864V100.6ZM760.76 98.6V275H764.76V98.6H760.76ZM762.76 273H712.864V277H762.76V273ZM714.864 275V98.6H710.864V275H714.864ZM644.824 273H594.928V277H644.824V273ZM596.928 275V98.6H592.928V275H596.928ZM594.928 100.6H644.824V96.6H594.928V100.6ZM642.824 98.6V275H646.824V98.6H642.824ZM716.392 204.204H641.296V208.204H716.392V204.204ZM643.296 206.204V164.876H639.296V206.204H643.296ZM641.296 166.876H716.392V162.876H641.296V166.876ZM714.392 164.876V206.204H718.392V164.876H714.392ZM797.956 275H795.956V277H797.956V275ZM797.956 98.6V96.6H795.956V98.6H797.956ZM847.852 98.6H849.852V96.6H847.852V98.6ZM847.852 275V277H849.852V275H847.852ZM799.956 275V98.6H795.956V275H799.956ZM797.956 100.6H847.852V96.6H797.956V100.6ZM845.852 98.6V275H849.852V98.6H845.852ZM847.852 273H797.956V277H847.852V273ZM920.898 275H918.898V277H920.898V275ZM920.898 138.164H922.898V136.164H920.898V138.164ZM866.718 138.164H864.718V140.164H866.718V138.164ZM866.718 98.6V96.6H864.718V98.6H866.718ZM1024.72 98.6H1026.72V96.6H1024.72V98.6ZM1024.72 138.164V140.164H1026.72V138.164H1024.72ZM970.794 138.164V136.164H968.794V138.164H970.794ZM970.794 275V277H972.794V275H970.794ZM922.898 275V138.164H918.898V275H922.898ZM920.898 136.164H866.718V140.164H920.898V136.164ZM868.718 138.164V98.6H864.718V138.164H868.718ZM866.718 100.6H1024.72V96.6H866.718V100.6ZM1022.72 98.6V138.164H1026.72V98.6H1022.72ZM1024.72 136.164H970.794V140.164H1024.72V136.164ZM968.794 138.164V275H972.794V138.164H968.794ZM970.794 273H920.898V277H970.794V273ZM1089.18 166.892V164.892H1087.18V166.892H1089.18ZM1171.08 166.892H1173.08V164.892H1171.08V166.892ZM1171.08 204.188V206.188H1173.08V204.188H1171.08ZM1089.18 204.188H1087.18V206.188H1089.18V204.188ZM1092.7 236.444H1090.7V238.444H1092.7V236.444ZM1184.94 236.444H1186.94V234.444H1184.94V236.444ZM1184.94 275V277H1186.94V275H1184.94ZM1043.31 275H1041.31V277H1043.31V275ZM1043.31 98.6V96.6H1041.31V98.6H1043.31ZM1181.66 98.6H1183.66V96.6H1181.66V98.6ZM1181.66 137.156V139.156H1183.66V137.156H1181.66ZM1092.7 137.156V135.156H1090.7V137.156H1092.7ZM1089.18 168.892H1171.08V164.892H1089.18V168.892ZM1169.08 166.892V204.188H1173.08V166.892H1169.08ZM1171.08 202.188H1089.18V206.188H1171.08V202.188ZM1091.18 204.188V166.892H1087.18V204.188H1091.18ZM1092.7 238.444H1184.94V234.444H1092.7V238.444ZM1182.94 236.444V275H1186.94V236.444H1182.94ZM1184.94 273H1043.31V277H1184.94V273ZM1045.31 275V98.6H1041.31V275H1045.31ZM1043.31 100.6H1181.66V96.6H1043.31V100.6ZM1179.66 98.6V137.156H1183.66V98.6H1179.66ZM1181.66 135.156H1092.7V139.156H1181.66V135.156ZM1090.7 137.156V236.444H1094.7V137.156H1090.7ZM1261.76 271.976L1261.04 273.842L1261.06 273.848L1261.08 273.854L1261.76 271.976ZM1231.02 252.824L1229.63 254.266L1229.64 254.273L1229.65 254.28L1231.02 252.824ZM1210.86 223.844L1209.02 224.638L1209.03 224.649L1210.86 223.844ZM1210.86 150.008L1212.69 150.813L1212.7 150.802L1210.86 150.008ZM1231.02 120.776L1229.65 119.32L1229.64 119.327L1229.63 119.334L1231.02 120.776ZM1261.76 101.876L1262.46 103.751L1262.47 103.748L1262.47 103.745L1261.76 101.876ZM1344.17 103.64L1343.35 105.466L1343.36 105.47L1344.17 103.64ZM1376.42 128.336L1377.77 129.819L1379.16 128.559L1377.99 127.09L1376.42 128.336ZM1344.67 157.064L1343.15 158.359L1344.48 159.931L1346.01 158.547L1344.67 157.064ZM1325.77 141.692L1324.84 143.463L1324.85 143.467L1324.86 143.472L1325.77 141.692ZM1283.18 139.928L1283.91 141.792V141.792L1283.18 139.928ZM1267.56 150.26L1266.12 148.873L1266.12 148.874L1267.56 150.26ZM1257.48 166.136L1255.63 165.385L1255.62 165.406L1255.61 165.428L1257.48 166.136ZM1257.48 207.464L1255.61 208.172L1255.62 208.194L1255.63 208.215L1257.48 207.464ZM1267.56 223.592L1266.09 224.951L1266.12 224.979L1266.15 225.006L1267.56 223.592ZM1283.18 233.672L1283.91 231.808V231.808L1283.18 233.672ZM1325.77 231.908L1324.86 230.128L1324.85 230.133L1324.84 230.137L1325.77 231.908ZM1344.67 216.536L1346.01 215.053L1344.48 213.669L1343.15 215.241L1344.67 216.536ZM1376.42 245.264L1377.98 246.522L1379.17 245.051L1377.77 243.781L1376.42 245.264ZM1344.17 269.96L1344.98 271.786L1345 271.781L1344.17 269.96ZM1300.57 276.528C1286.84 276.528 1274.14 274.378 1262.45 270.098L1261.08 273.854C1273.24 278.31 1286.42 280.528 1300.57 280.528V276.528ZM1262.48 270.11C1250.95 265.663 1240.93 259.414 1232.39 251.368L1229.65 254.28C1238.58 262.698 1249.05 269.217 1261.04 273.842L1262.48 270.11ZM1232.41 251.382C1224.03 243.335 1217.46 233.893 1212.69 223.039L1209.03 224.649C1214 235.971 1220.87 245.849 1229.63 254.266L1232.41 251.382ZM1212.7 223.05C1207.94 212.067 1205.55 199.993 1205.55 186.8H1201.55C1201.55 200.487 1204.03 213.109 1209.02 224.638L1212.7 223.05ZM1205.55 186.8C1205.55 173.606 1207.94 161.62 1212.69 150.813L1209.03 149.203C1204.03 160.572 1201.55 173.114 1201.55 186.8H1205.55ZM1212.7 150.802C1217.47 139.782 1224.04 130.26 1232.41 122.218L1229.63 119.334C1220.87 127.756 1214 137.722 1209.02 149.214L1212.7 150.802ZM1232.39 122.232C1240.92 114.191 1250.94 108.03 1262.46 103.751L1261.07 100.001C1249.07 104.458 1238.59 110.897 1229.65 119.32L1232.39 122.232ZM1262.47 103.745C1274.16 99.3034 1286.85 97.072 1300.57 97.072V93.072C1286.41 93.072 1273.23 95.3766 1261.05 100.007L1262.47 103.745ZM1300.57 97.072C1316.63 97.072 1330.88 99.886 1343.35 105.466L1344.98 101.814C1331.92 95.97 1317.1 93.072 1300.57 93.072V97.072ZM1343.36 105.47C1356.01 111.055 1366.5 119.09 1374.86 129.582L1377.99 127.09C1369.21 116.078 1358.2 107.649 1344.98 101.81L1343.36 105.47ZM1375.08 126.853L1343.33 155.581L1346.01 158.547L1377.77 129.819L1375.08 126.853ZM1346.2 155.769C1340.34 148.876 1333.84 143.575 1326.68 139.912L1324.86 143.472C1331.48 146.865 1337.58 151.812 1343.15 158.359L1346.2 155.769ZM1326.7 139.921C1319.67 136.227 1311.78 134.4 1303.09 134.4V138.4C1311.2 138.4 1318.44 140.101 1324.84 143.463L1326.7 139.921ZM1303.09 134.4C1295.65 134.4 1288.76 135.612 1282.46 138.064L1283.91 141.792C1289.7 139.54 1296.09 138.4 1303.09 138.4V134.4ZM1282.46 138.064C1276.15 140.518 1270.69 144.121 1266.12 148.873L1269 151.647C1273.16 147.327 1278.12 144.042 1283.91 141.792L1282.46 138.064ZM1266.12 148.874C1261.72 153.444 1258.23 158.958 1255.63 165.385L1259.33 166.887C1261.77 160.882 1265 155.812 1269 151.646L1266.12 148.874ZM1255.61 165.428C1253.16 171.899 1251.95 179.031 1251.95 186.8H1255.95C1255.95 179.449 1257.09 172.805 1259.35 166.844L1255.61 165.428ZM1251.95 186.8C1251.95 194.569 1253.16 201.701 1255.61 208.172L1259.35 206.756C1257.09 200.795 1255.95 194.151 1255.95 186.8H1251.95ZM1255.63 208.215C1258.23 214.636 1261.71 220.223 1266.09 224.951L1269.03 222.233C1265.01 217.889 1261.77 212.724 1259.33 206.713L1255.63 208.215ZM1266.15 225.006C1270.72 229.58 1276.17 233.089 1282.46 235.536L1283.91 231.808C1278.11 229.551 1273.14 226.34 1268.97 222.178L1266.15 225.006ZM1282.46 235.536C1288.76 237.988 1295.65 239.2 1303.09 239.2V235.2C1296.09 235.2 1289.7 234.06 1283.91 231.808L1282.46 235.536ZM1303.09 239.2C1311.78 239.2 1319.67 237.373 1326.7 233.679L1324.84 230.137C1318.44 233.499 1311.2 235.2 1303.09 235.2V239.2ZM1326.68 233.688C1333.84 230.025 1340.34 224.724 1346.2 217.831L1343.15 215.241C1337.58 221.788 1331.48 226.735 1324.86 230.128L1326.68 233.688ZM1343.33 218.019L1375.08 246.747L1377.77 243.781L1346.01 215.053L1343.33 218.019ZM1374.87 244.006C1366.51 254.338 1356.01 262.382 1343.34 268.139L1345 271.781C1358.2 265.778 1369.21 257.358 1377.98 246.522L1374.87 244.006ZM1343.35 268.134C1330.88 273.714 1316.63 276.528 1300.57 276.528V280.528C1317.1 280.528 1331.92 277.63 1344.98 271.786L1343.35 268.134ZM1434.74 275H1432.74V277H1434.74V275ZM1434.74 138.164H1436.74V136.164H1434.74V138.164ZM1380.56 138.164H1378.56V140.164H1380.56V138.164ZM1380.56 98.6V96.6H1378.56V98.6H1380.56ZM1538.57 98.6H1540.57V96.6H1538.57V98.6ZM1538.57 138.164V140.164H1540.57V138.164H1538.57ZM1484.64 138.164V136.164H1482.64V138.164H1484.64ZM1484.64 275V277H1486.64V275H1484.64ZM1436.74 275V138.164H1432.74V275H1436.74ZM1434.74 136.164H1380.56V140.164H1434.74V136.164ZM1382.56 138.164V98.6H1378.56V138.164H1382.56ZM1380.56 100.6H1538.57V96.6H1380.56V100.6ZM1536.57 98.6V138.164H1540.57V98.6H1536.57ZM1538.57 136.164H1484.64V140.164H1538.57V136.164ZM1482.64 138.164V275H1486.64V138.164H1482.64ZM1484.64 273H1434.74V277H1484.64V273ZM1576.82 273.236L1576.29 275.163L1576.3 275.167L1576.32 275.17L1576.82 273.236ZM1544.31 259.124L1542.49 258.311L1541.81 259.838L1543.19 260.778L1544.31 259.124ZM1560.69 222.332L1561.77 220.646L1559.81 219.396L1558.87 221.519L1560.69 222.332ZM1587.91 234.932L1587.29 236.832L1587.31 236.839L1587.32 236.844L1587.91 234.932ZM1635.54 237.956L1636.08 239.882L1636.11 239.872L1636.15 239.861L1635.54 237.956ZM1644.61 232.916L1643.14 231.559L1643.14 231.565L1644.61 232.916ZM1642.09 215.78L1641.02 217.467V217.467L1642.09 215.78ZM1627.73 209.984L1628.22 208.047V208.047L1627.73 209.984ZM1608.07 205.448L1607.65 207.404L1607.66 207.406L1608.07 205.448ZM1586.65 199.652L1586.02 201.549L1586.03 201.554L1586.65 199.652ZM1567.25 190.58L1566.15 192.251L1566.17 192.263L1566.18 192.273L1567.25 190.58ZM1552.88 175.712L1551.16 176.734L1551.17 176.745L1551.18 176.755L1552.88 175.712ZM1555.91 123.548L1554.26 122.416L1554.25 122.427L1554.24 122.439L1555.91 123.548ZM1582.11 102.884L1581.3 101.06V101.06L1582.11 102.884ZM1659.48 99.104L1659.01 101.048L1659.02 101.052L1659.04 101.056L1659.48 99.104ZM1689.47 110.444L1691.31 111.211L1691.99 109.589L1690.47 108.712L1689.47 110.444ZM1674.09 147.488L1673.14 149.248L1675.09 150.3L1675.94 148.255L1674.09 147.488ZM1649.15 137.408L1648.6 139.331L1648.62 139.336L1648.63 139.341L1649.15 137.408ZM1608.57 136.148L1609.18 138.053L1609.22 138.042L1609.25 138.03L1608.57 136.148ZM1599.5 141.692L1597.93 140.456V140.456L1599.5 141.692ZM1602.02 159.08L1600.91 160.744L1600.96 160.774L1601.01 160.802L1602.02 159.08ZM1616.39 164.624L1615.89 166.561L1615.92 166.569L1615.95 166.576L1616.39 164.624ZM1636.04 168.908L1635.62 170.864L1635.63 170.866L1636.04 168.908ZM1657.46 174.704L1656.83 176.601L1656.86 176.61L1656.88 176.618L1657.46 174.704ZM1677.12 183.776L1676.02 185.447L1676.04 185.459L1676.05 185.469L1677.12 183.776ZM1691.23 198.644L1689.49 199.631L1689.51 199.659L1689.52 199.687L1691.23 198.644ZM1687.95 250.052L1686.3 248.935L1686.29 248.943L1687.95 250.052ZM1662 270.716L1661.18 268.892L1661.17 268.896L1662 270.716ZM1618.65 276.528C1604.37 276.528 1590.6 274.784 1577.33 271.302L1576.32 275.17C1589.93 278.744 1604.04 280.528 1618.65 280.528V276.528ZM1577.36 271.309C1564.23 267.652 1553.61 263.025 1545.44 257.47L1543.19 260.778C1551.82 266.647 1562.87 271.428 1576.29 275.163L1577.36 271.309ZM1546.14 259.937L1562.52 223.145L1558.87 221.519L1542.49 258.311L1546.14 259.937ZM1559.62 224.018C1567.68 229.16 1576.9 233.428 1587.29 236.832L1588.53 233.032C1578.42 229.716 1569.51 225.584 1561.77 220.646L1559.62 224.018ZM1587.32 236.844C1597.92 240.091 1608.45 241.72 1618.91 241.72V237.72C1608.87 237.72 1598.73 236.157 1588.5 233.02L1587.32 236.844ZM1618.91 241.72C1625.88 241.72 1631.63 241.127 1636.08 239.882L1635 236.03C1631.05 237.137 1625.7 237.72 1618.91 237.72V241.72ZM1636.15 239.861C1640.5 238.469 1643.9 236.652 1646.09 234.267L1643.14 231.565C1641.63 233.212 1638.98 234.755 1634.93 236.051L1636.15 239.861ZM1646.08 234.273C1648.42 231.736 1649.63 228.737 1649.63 225.356H1645.63C1645.63 227.687 1644.83 229.728 1643.14 231.559L1646.08 234.273ZM1649.63 225.356C1649.63 220.572 1647.38 216.774 1643.16 214.093L1641.02 217.467C1644.2 219.49 1645.63 222.076 1645.63 225.356H1649.63ZM1643.16 214.093C1639.24 211.593 1634.24 209.593 1628.22 208.047L1627.23 211.921C1632.98 213.399 1637.55 215.263 1641.02 217.467L1643.16 214.093ZM1628.22 208.047C1622.31 206.526 1615.73 205.007 1608.48 203.49L1607.66 207.406C1614.86 208.913 1621.38 210.418 1627.23 211.921L1628.22 208.047ZM1608.49 203.492C1601.5 201.996 1594.43 200.082 1587.27 197.75L1586.03 201.554C1593.32 203.926 1600.52 205.876 1607.65 207.404L1608.49 203.492ZM1587.28 197.755C1580.37 195.45 1574.05 192.492 1568.31 188.887L1566.18 192.273C1572.21 196.06 1578.82 199.15 1586.02 201.549L1587.28 197.755ZM1568.35 188.909C1562.71 185.208 1558.13 180.467 1554.59 174.669L1551.18 176.755C1555.03 183.053 1560.02 188.224 1566.15 192.251L1568.35 188.909ZM1554.6 174.69C1551.14 168.863 1549.34 161.43 1549.34 152.276H1545.34C1545.34 161.938 1547.24 170.129 1551.16 176.734L1554.6 174.69ZM1549.34 152.276C1549.34 142.075 1552.08 132.887 1557.57 124.657L1554.24 122.439C1548.31 131.345 1545.34 141.309 1545.34 152.276H1549.34ZM1557.56 124.68C1563.19 116.475 1571.6 109.799 1582.93 104.708L1581.3 101.06C1569.44 106.385 1560.39 113.485 1554.26 122.416L1557.56 124.68ZM1582.93 104.708C1594.19 99.65 1608.34 97.072 1625.46 97.072V93.072C1607.97 93.072 1593.22 95.702 1581.3 101.06L1582.93 104.708ZM1625.46 97.072C1636.89 97.072 1648.08 98.3977 1659.01 101.048L1659.95 97.1603C1648.71 94.4343 1637.21 93.072 1625.46 93.072V97.072ZM1659.04 101.056C1670.13 103.538 1679.93 107.251 1688.47 112.176L1690.47 108.712C1681.53 103.557 1671.34 99.7103 1659.92 97.1523L1659.04 101.056ZM1687.62 109.677L1672.25 146.721L1675.94 148.255L1691.31 111.211L1687.62 109.677ZM1675.05 145.728C1666.52 141.126 1658.06 137.704 1649.66 135.475L1648.63 139.341C1656.7 141.48 1664.87 144.778 1673.14 149.248L1675.05 145.728ZM1649.7 135.485C1641.3 133.087 1633.14 131.88 1625.21 131.88V135.88C1632.73 135.88 1640.53 137.025 1648.6 139.331L1649.7 135.485ZM1625.21 131.88C1618.2 131.88 1612.4 132.646 1607.9 134.266L1609.25 138.03C1613.15 136.627 1618.44 135.88 1625.21 135.88V131.88ZM1607.97 134.243C1603.56 135.654 1600.12 137.674 1597.93 140.456L1601.08 142.928C1602.59 141.006 1605.19 139.33 1609.18 138.053L1607.97 134.243ZM1597.93 140.456C1595.8 143.165 1594.73 146.289 1594.73 149.756H1598.73C1598.73 147.175 1599.51 144.923 1601.08 142.928L1597.93 140.456ZM1594.73 149.756C1594.73 154.362 1596.89 158.064 1600.91 160.744L1603.13 157.416C1600.1 155.392 1598.73 152.878 1598.73 149.756H1594.73ZM1601.01 160.802C1604.92 163.112 1609.9 165.02 1615.89 166.561L1616.88 162.687C1611.12 161.204 1606.52 159.416 1603.04 157.358L1601.01 160.802ZM1615.95 166.576C1622.01 167.922 1628.56 169.351 1635.62 170.864L1636.46 166.952C1629.41 165.441 1622.86 164.014 1616.82 162.672L1615.95 166.576ZM1635.63 170.866C1642.78 172.362 1649.85 174.274 1656.83 176.601L1658.1 172.807C1650.97 170.43 1643.75 168.478 1636.45 166.95L1635.63 170.866ZM1656.88 176.618C1663.94 178.751 1670.31 181.696 1676.02 185.447L1678.22 182.105C1672.17 178.128 1665.44 175.025 1658.04 172.79L1656.88 176.618ZM1676.05 185.469C1681.65 188.984 1686.12 193.694 1689.49 199.631L1692.97 197.657C1689.28 191.162 1684.35 185.96 1678.18 182.083L1676.05 185.469ZM1689.52 199.687C1692.98 205.339 1694.77 212.595 1694.77 221.576H1698.77C1698.77 212.077 1696.88 204.045 1692.94 197.601L1689.52 199.687ZM1694.77 221.576C1694.77 231.415 1691.96 240.52 1686.3 248.935L1689.61 251.169C1695.71 242.112 1698.77 232.233 1698.77 221.576H1694.77ZM1686.29 248.943C1680.83 257.132 1672.51 263.802 1661.18 268.892L1662.82 272.54C1674.67 267.214 1683.65 260.108 1689.62 251.161L1686.29 248.943ZM1661.17 268.896C1650.09 273.949 1635.95 276.528 1618.65 276.528V280.528C1636.31 280.528 1651.06 277.899 1662.83 272.536L1661.17 268.896Z" fill="white" mask="url(#path-1-outside-1_725_10)"/>
</g>
<path d="M797.951 79V34.474H780.321V21.6H831.735V34.474H814.187V79H797.951ZM876.159 21.6H892.395V79H876.159V21.6ZM854.019 79H837.783V21.6H854.019V79ZM877.307 56.614H852.871V43.166H877.307V56.614ZM918.772 43.822H945.422V55.958H918.772V43.822ZM919.92 66.454H949.932V79H903.848V21.6H948.866V34.146H919.92V66.454Z" fill="white"/>
<defs>
<clipPath id="bgblur_0_725_10_clip_path" transform="translate(86 -7.07202)"><path d="M3.06905 275L80.9371 98.6H130.077L208.197 275H156.285L95.3011 123.044H114.957L53.973 275H3.06905ZM45.657 240.728L58.509 203.936H144.693L157.545 240.728H45.657ZM222.343 275V98.6H302.983C319.111 98.6 332.971 101.204 344.563 106.412C356.323 111.62 365.395 119.18 371.779 129.092C378.163 138.836 381.355 150.428 381.355 163.868C381.355 177.14 378.163 188.648 371.779 198.392C365.395 207.968 356.323 215.36 344.563 220.568C332.971 225.608 319.111 228.128 302.983 228.128H250.063L272.239 207.212V275H222.343ZM331.459 275L287.611 210.74H340.783L384.883 275H331.459ZM272.239 212.504L250.063 189.572H299.959C310.375 189.572 318.103 187.304 323.143 182.768C328.351 178.232 330.955 171.932 330.955 163.868C330.955 155.636 328.351 149.252 323.143 144.716C318.103 140.18 310.375 137.912 299.959 137.912H250.063L272.239 114.98V212.504ZM496.83 278.528C482.886 278.528 469.95 276.344 458.022 271.976C446.262 267.44 436.014 261.056 427.278 252.824C418.71 244.592 411.99 234.932 407.118 223.844C402.246 212.588 399.81 200.24 399.81 186.8C399.81 173.36 402.246 161.096 407.118 150.008C411.99 138.752 418.71 129.008 427.278 120.776C436.014 112.544 446.262 106.244 458.022 101.876C469.95 97.34 482.886 95.072 496.83 95.072C513.126 95.072 527.658 97.928 540.426 103.64C553.362 109.352 564.114 117.584 572.682 128.336L540.93 157.064C535.218 150.344 528.918 145.22 522.03 141.692C515.31 138.164 507.75 136.4 499.35 136.4C492.126 136.4 485.49 137.576 479.442 139.928C473.394 142.28 468.186 145.724 463.818 150.26C459.618 154.628 456.258 159.92 453.738 166.136C451.386 172.352 450.21 179.24 450.21 186.8C450.21 194.36 451.386 201.248 453.738 207.464C456.258 213.68 459.618 219.056 463.818 223.592C468.186 227.96 473.394 231.32 479.442 233.672C485.49 236.024 492.126 237.2 499.35 237.2C507.75 237.2 515.31 235.436 522.03 231.908C528.918 228.38 535.218 223.256 540.93 216.536L572.682 245.264C564.114 255.848 553.362 264.08 540.426 269.96C527.658 275.672 513.126 278.528 496.83 278.528ZM712.864 98.6H762.76V275H712.864V98.6ZM644.824 275H594.928V98.6H644.824V275ZM716.392 206.204H641.296V164.876H716.392V206.204ZM797.956 275V98.6H847.852V275H797.956ZM920.898 275V138.164H866.718V98.6H1024.72V138.164H970.794V275H920.898ZM1089.18 166.892H1171.08V204.188H1089.18V166.892ZM1092.7 236.444H1184.94V275H1043.31V98.6H1181.66V137.156H1092.7V236.444ZM1300.57 278.528C1286.63 278.528 1273.69 276.344 1261.76 271.976C1250 267.44 1239.76 261.056 1231.02 252.824C1222.45 244.592 1215.73 234.932 1210.86 223.844C1205.99 212.588 1203.55 200.24 1203.55 186.8C1203.55 173.36 1205.99 161.096 1210.86 150.008C1215.73 138.752 1222.45 129.008 1231.02 120.776C1239.76 112.544 1250 106.244 1261.76 101.876C1273.69 97.34 1286.63 95.072 1300.57 95.072C1316.87 95.072 1331.4 97.928 1344.17 103.64C1357.1 109.352 1367.86 117.584 1376.42 128.336L1344.67 157.064C1338.96 150.344 1332.66 145.22 1325.77 141.692C1319.05 138.164 1311.49 136.4 1303.09 136.4C1295.87 136.4 1289.23 137.576 1283.18 139.928C1277.14 142.28 1271.93 145.724 1267.56 150.26C1263.36 154.628 1260 159.92 1257.48 166.136C1255.13 172.352 1253.95 179.24 1253.95 186.8C1253.95 194.36 1255.13 201.248 1257.48 207.464C1260 213.68 1263.36 219.056 1267.56 223.592C1271.93 227.96 1277.14 231.32 1283.18 233.672C1289.23 236.024 1295.87 237.2 1303.09 237.2C1311.49 237.2 1319.05 235.436 1325.77 231.908C1332.66 228.38 1338.96 223.256 1344.67 216.536L1376.42 245.264C1367.86 255.848 1357.1 264.08 1344.17 269.96C1331.4 275.672 1316.87 278.528 1300.57 278.528ZM1434.74 275V138.164H1380.56V98.6H1538.57V138.164H1484.64V275H1434.74ZM1618.65 278.528C1604.21 278.528 1590.26 276.764 1576.82 273.236C1563.55 269.54 1552.71 264.836 1544.31 259.124L1560.69 222.332C1568.59 227.372 1577.66 231.572 1587.91 234.932C1598.33 238.124 1608.66 239.72 1618.91 239.72C1625.79 239.72 1631.34 239.132 1635.54 237.956C1639.74 236.612 1642.76 234.932 1644.61 232.916C1646.63 230.732 1647.63 228.212 1647.63 225.356C1647.63 221.324 1645.79 218.132 1642.09 215.78C1638.39 213.428 1633.61 211.496 1627.73 209.984C1621.85 208.472 1615.29 206.96 1608.07 205.448C1601.01 203.936 1593.87 202.004 1586.65 199.652C1579.59 197.3 1573.13 194.276 1567.25 190.58C1561.37 186.716 1556.58 181.76 1552.88 175.712C1549.19 169.496 1547.34 161.684 1547.34 152.276C1547.34 141.692 1550.19 132.116 1555.91 123.548C1561.79 114.98 1570.52 108.092 1582.11 102.884C1593.71 97.676 1608.15 95.072 1625.46 95.072C1637.05 95.072 1648.39 96.416 1659.48 99.104C1670.73 101.624 1680.73 105.404 1689.47 110.444L1674.09 147.488C1665.69 142.952 1657.38 139.592 1649.15 137.408C1640.91 135.056 1632.93 133.88 1625.21 133.88C1618.32 133.88 1612.77 134.636 1608.57 136.148C1604.37 137.492 1601.35 139.34 1599.5 141.692C1597.65 144.044 1596.73 146.732 1596.73 149.756C1596.73 153.62 1598.49 156.728 1602.02 159.08C1605.72 161.264 1610.51 163.112 1616.39 164.624C1622.43 165.968 1628.99 167.396 1636.04 168.908C1643.27 170.42 1650.41 172.352 1657.46 174.704C1664.69 176.888 1671.24 179.912 1677.12 183.776C1683 187.472 1687.7 192.428 1691.23 198.644C1694.93 204.692 1696.77 212.336 1696.77 221.576C1696.77 231.824 1693.83 241.316 1687.95 250.052C1682.24 258.62 1673.59 265.508 1662 270.716C1650.57 275.924 1636.13 278.528 1618.65 278.528Z"/>
</clipPath></defs>
</svg>
