<?xml version="1.0" encoding="UTF-8" standalone="no"?>
<svg
   viewBox="0 0 383.18 290.79"
   version="1.1"
   id="svg14"
   sodipodi:docname="Asset 5.svg"
   xmlns:inkscape="http://www.inkscape.org/namespaces/inkscape"
   xmlns:sodipodi="http://sodipodi.sourceforge.net/DTD/sodipodi-0.dtd"
   xmlns="http://www.w3.org/2000/svg"
   xmlns:svg="http://www.w3.org/2000/svg">
  <sodipodi:namedview
     id="namedview16"
     pagecolor="#ffffff"
     bordercolor="#000000"
     borderopacity="0.25"
     inkscape:showpageshadow="2"
     inkscape:pageopacity="0.0"
     inkscape:pagecheckerboard="0"
     inkscape:deskcolor="#d1d1d1" />
  <defs
     id="defs4">
    <style
       id="style2">.cls-1{fill:#22c2ef;}.cls-2{fill:#21374d;}.cls-3{fill:#eee;}</style>
  </defs>
  <g
     id="Layer_2"
     data-name="Layer 2">
    <g
       id="Layer_1-2"
       data-name="Layer 1">
      <path
         class="cls-1"
         d="M288.78,207.9c-.16,2.9-.35,5-.36,7.1-.15,20.77-.19,41.54-.43,62.3-.11,9.44-4.15,13.34-13.54,13.46-6.45.09-12.91,0-19.36-.07-23.43-.13-46.87-.18-70.31-.43-9-.1-15-7.51-11.95-14.79,1.21-2.9,3.55-5.37,5.5-7.93,10.65-13.92,12.84-29.24,5.93-45.18-7.25-16.72-20.68-25.94-38.78-26.59-17-.61-30.4,7.1-39,22-9.59,16.55-7.77,34.83,4.23,50.25,3.61,4.64,7.22,9.27,3.77,15.82-3.24,6.14-8.78,6.16-14.45,6.13-28.38-.17-56.76-.26-85.14-.57C3.31,289.24-.06,285.65,0,274c.31-63.6.44-127.2,1.09-190.8C1.58,34.38,36.05,0,84.58,0,148,0,211.44.62,274.87,1c11.06.08,14.56,3.67,14.56,15.05,0,20.11-.21,40.23-.3,60.35,0,2.45.24,4.9.39,7.76,33.67-10.74,61.6-3.92,81.8,24.88a64.57,64.57,0,0,1-.66,75.52C350,212.43,322.26,219.32,288.78,207.9Z"
         id="path6" />
      <path
         class="cls-2"
         d="M288.78,207.9c33.48,11.42,61.25,4.53,81.88-23.31a64.57,64.57,0,0,0,.66-75.52c-20.2-28.8-48.13-35.62-81.8-24.88-.15-2.86-.4-5.31-.39-7.76.09-20.12.31-40.24.3-60.35,0-11.38-3.5-15-14.56-15C211.44.62,148,0,84.58,0,36.05,0,1.58,34.38,1.09,83.16.44,146.76.31,210.36,0,274c-.06,11.69,3.31,15.28,14.88,15.4,28.38.31,56.76.4,85.14.57,5.67,0,11.21,0,14.45-6.13,3.45-6.55-.16-11.18-3.77-15.82-12-15.42-13.82-33.7-4.23-50.25,8.61-14.86,22-22.57,39-22,18.1.65,31.53,9.87,38.78,26.59,6.91,15.94,4.72,31.26-5.93,45.18-2,2.56-4.29,5-5.5,7.93-3,7.28,2.94,14.69,11.95,14.79,23.44.25,46.88.3,70.31.43,6.45,0,12.91.16,19.36.07,9.39-.12,13.43-4,13.54-13.46.24-20.76.28-41.53.43-62.3C288.43,212.9,288.62,210.8,288.78,207.9ZM27.48,265.3a4.66,4.66,0,0,1-4.7-4.54v-.05c.06-14.71.19-29.42.28-44.13.27-43.93.94-87.86.69-131.79-.21-35.23,25.47-62.24,60.48-62.07q87.42.41,174.85,1c1.37,0,2.73.06,4.47.13a4.28,4.28,0,0,1,4.08,4.47c-.41,8.63-.9,16.94-1,25.25-.25,17-.14,34.06-.29,51.09a12.7,12.7,0,0,0,7.31,11.9c4.69,2,8.92.41,12.71-2.79,1-.83,2-1.68,3-2.5,17-13.77,44.78-11.37,59.23,5.12a45.2,45.2,0,0,1-1.81,61.31c-15.55,15.81-41.77,16.64-59.32,1.75-4.48-3.8-8.82-7-15-4s-6.59,8.51-6.61,14.3c-.05,14.5-.05,29-.15,43.49-.06,9.4-.2,18.8-.32,27.24a5.39,5.39,0,0,1-5.3,5.25l-48.06.53a4.18,4.18,0,0,1-4.06-5.33c14-49.47-22.91-84.44-55.28-87.52-18.58-1.77-35.8,2-50,14.33-23.12,20-29.58,45-21.93,72.77a3.89,3.89,0,0,1-3.76,4.92Z"
         id="path8" />
      <path
         class="cls-3"
         d="M83.94,43.53c-26.18-.25-45,21.38-40.44,47,.51,2.82,4.19,6.43,7,7.14,4.33,1.09,7.3-2.4,7.93-6.87.47-3.25.29-6.59.46-9.89C59.55,68,68.72,59.24,81.57,59.14c2.84,0,5.7.18,8.54,0,4.69-.28,8.26-2.51,8.37-7.53s-3.25-7.46-8-8C88.34,43.45,86.13,43.57,83.94,43.53Z"
         id="path10" />
    </g>
  </g>
</svg>
