<svg xmlns="http://www.w3.org/2000/svg" x="0px" y="0px" width="100" height="100" viewBox="0 0 24 24">
                    <path d="M8.537 24L8.537 24c-1.933 0-3.5-1.567-3.5-3.5l0 0c0-1.933 1.567-3.5 3.5-3.5h3.5v3.5C12.037 22.433 10.47 24 8.537 24zM16.5 8H13V1h3.5C18.433 1 20 2.567 20 4.5l0 0C20 6.433 18.433 8 16.5 8zM8.5 8H12V1H8.5C6.567 1 5 2.567 5 4.5l0 0C5 6.433 6.567 8 8.5 8zM8.5 16H12V9H8.5C6.567 9 5 10.567 5 12.5l0 0C5 14.433 6.567 16 8.5 16zM16 9A3 3 0 1016 15 3 3 0 1016 9z"></path>
                    </svg>
                  <svg xmlns="http://www.w3.org/2000/svg" x="0px" y="0px" width="100" height="100" viewBox="0 0 26 26">
                    <path d="M 4.875 0 C 2.183594 0 0 2.183594 0 4.875 L 0 21.125 C 0 23.816406 2.183594 26 4.875 26 L 21.125 26 C 23.816406 26 26 23.816406 26 21.125 L 26 4.875 C 26 2.183594 23.816406 0 21.125 0 Z M 17 6.5 C 17.402344 6.5 17.722656 6.621094 17.96875 6.84375 C 18.21875 7.070313 18.34375 7.382813 18.34375 7.75 C 18.34375 8.117188 18.222656 8.410156 17.96875 8.625 C 17.722656 8.835938 17.398438 8.9375 17 8.9375 C 16.59375 8.9375 16.285156 8.816406 16.0625 8.59375 C 15.835938 8.375 15.71875 8.101563 15.71875 7.75 C 15.71875 7.398438 15.835938 7.105469 16.0625 6.875 C 16.285156 6.644531 16.59375 6.5 17 6.5 Z M 10.40625 6.59375 L 11.96875 6.59375 C 12.023438 6.59375 12.078125 6.632813 12.09375 6.6875 L 15.34375 17.9375 C 15.359375 17.957031 15.375 17.976563 15.375 18 C 15.375 18.070313 15.316406 18.125 15.25 18.125 L 13.125 18.125 C 13.066406 18.125 13.015625 18.085938 13 18.03125 L 12.34375 15.5625 L 9.90625 15.5625 L 9.25 18.03125 C 9.234375 18.085938 9.214844 18.125 9.15625 18.125 L 7.15625 18.125 C 7.117188 18.125 7.054688 18.09375 7.03125 18.0625 C 7.007813 18.03125 7.019531 18.003906 7.03125 17.96875 L 10.28125 6.6875 C 10.296875 6.632813 10.351563 6.59375 10.40625 6.59375 Z M 16.0625 9.875 L 17.96875 9.875 C 18.039063 9.875 18.09375 9.929688 18.09375 10 L 18.09375 18 C 18.09375 18.070313 18.039063 18.125 17.96875 18.125 L 16.0625 18.125 C 15.992188 18.125 15.9375 18.070313 15.9375 18 L 15.9375 10 C 15.9375 9.929688 15.992188 9.875 16.0625 9.875 Z M 11.15625 10.0625 L 10.96875 11.21875 L 10.40625 13.6875 L 11.9375 13.6875 L 11.3125 11.21875 Z"></path>
                    </svg>
                    <svg xmlns="http://www.w3.org/2000/svg" x="0px" y="0px" width="100" height="100" viewBox="0 0 26 26">
                      <path d="M 11.546875 9.46875 C 11.632813 9.699219 11.675781 9.984375 11.675781 10.320313 C 11.675781 10.722656 11.628906 11.054688 11.539063 11.3125 C 11.449219 11.5625 11.328125 11.761719 11.179688 11.902344 C 11.027344 12.042969 10.855469 12.144531 10.660156 12.199219 C 10.460938 12.261719 10.246094 12.292969 10.023438 12.292969 C 9.964844 12.292969 9.847656 12.285156 9.675781 12.269531 C 9.5625 12.257813 9.484375 12.246094 9.429688 12.238281 L 9.429688 8.613281 C 9.617188 8.574219 9.851563 8.558594 10.121094 8.558594 C 10.328125 8.558594 10.53125 8.585938 10.722656 8.648438 C 10.90625 8.707031 11.070313 8.800781 11.210938 8.929688 C 11.351563 9.0625 11.464844 9.242188 11.546875 9.46875 Z M 26 4.875 L 26 21.125 C 26 23.816406 23.816406 26 21.125 26 L 4.875 26 C 2.183594 26 0 23.816406 0 21.125 L 0 4.875 C 0 2.183594 2.183594 0 4.875 0 L 21.125 0 C 23.816406 0 26 2.183594 26 4.875 Z M 13.730469 12.175781 C 13.933594 11.671875 14.035156 11.054688 14.035156 10.335938 C 14.035156 9.542969 13.914063 8.886719 13.671875 8.386719 C 13.429688 7.886719 13.109375 7.488281 12.71875 7.210938 C 12.332031 6.933594 11.886719 6.746094 11.398438 6.652344 C 10.46875 6.476563 9.503906 6.484375 8.539063 6.589844 C 8.082031 6.636719 7.652344 6.703125 7.261719 6.789063 C 7.203125 6.804688 7.164063 6.855469 7.164063 6.910156 L 7.164063 18 C 7.164063 18.070313 7.21875 18.125 7.289063 18.125 L 9.304688 18.125 C 9.371094 18.125 9.429688 18.070313 9.429688 18 L 9.429688 14.289063 C 9.453125 14.292969 9.480469 14.296875 9.507813 14.300781 C 9.609375 14.3125 9.714844 14.320313 9.824219 14.324219 C 9.933594 14.328125 10.039063 14.332031 10.136719 14.332031 L 10.34375 14.332031 C 10.8125 14.332031 11.277344 14.261719 11.71875 14.117188 C 12.167969 13.976563 12.566406 13.738281 12.910156 13.417969 C 13.253906 13.097656 13.527344 12.679688 13.730469 12.175781 Z M 19.234375 15.761719 C 19.234375 15.304688 19.160156 14.914063 19.007813 14.601563 C 18.855469 14.289063 18.660156 14.023438 18.429688 13.804688 C 18.195313 13.589844 17.949219 13.410156 17.691406 13.265625 C 17.441406 13.128906 17.203125 12.996094 16.980469 12.867188 C 16.765625 12.746094 16.585938 12.617188 16.453125 12.492188 C 16.335938 12.382813 16.277344 12.25 16.277344 12.082031 C 16.277344 11.835938 16.351563 11.550781 16.933594 11.550781 C 17.199219 11.550781 17.472656 11.589844 17.75 11.664063 C 18.027344 11.742188 18.269531 11.824219 18.46875 11.90625 C 18.503906 11.921875 18.539063 11.921875 18.570313 11.90625 C 18.605469 11.890625 18.628906 11.863281 18.636719 11.828125 L 19.085938 10.355469 C 19.101563 10.300781 19.082031 10.242188 19.03125 10.214844 C 18.777344 10.058594 18.429688 9.925781 18.003906 9.824219 C 17.582031 9.71875 17.125 9.667969 16.648438 9.667969 C 15.828125 9.667969 15.195313 9.882813 14.765625 10.3125 C 14.339844 10.738281 14.121094 11.351563 14.121094 12.128906 C 14.121094 12.582031 14.199219 12.96875 14.351563 13.273438 C 14.5 13.574219 14.695313 13.832031 14.929688 14.046875 C 15.164063 14.253906 15.410156 14.433594 15.664063 14.574219 C 15.914063 14.710938 16.152344 14.847656 16.375 14.980469 C 16.589844 15.105469 16.765625 15.246094 16.898438 15.386719 C 17.023438 15.519531 17.082031 15.679688 17.082031 15.871094 C 17.082031 16.074219 17.019531 16.21875 16.894531 16.304688 C 16.757813 16.402344 16.574219 16.449219 16.359375 16.449219 C 16.050781 16.449219 15.753906 16.402344 15.476563 16.3125 C 15.195313 16.21875 14.941406 16.109375 14.722656 15.988281 C 14.691406 15.96875 14.652344 15.964844 14.617188 15.976563 C 14.582031 15.992188 14.554688 16.019531 14.542969 16.054688 L 14.015625 17.589844 C 13.996094 17.644531 14.019531 17.703125 14.066406 17.734375 C 14.332031 17.914063 14.6875 18.058594 15.121094 18.167969 C 15.550781 18.277344 15.996094 18.332031 16.4375 18.332031 C 17.355469 18.332031 18.058594 18.09375 18.527344 17.625 C 18.996094 17.152344 19.234375 16.527344 19.234375 15.761719 Z"></path>
                      </svg>
                      <svg xmlns="http://www.w3.org/2000/svg" x="0px" y="0px" width="100" height="100" viewBox="0 0 24 24" style="scale:1.3; border-radius:5px; margin-bottom: 0.5px;">
                        <path d="M15.231,11.231c-0.305,0-0.527,0.123-0.668,0.369s-0.211,0.684-0.211,1.313v0.439c0,0.625,0.066,1.062,0.199,1.31 s0.357,0.372,0.674,0.372c0.328,0,0.576-0.146,0.744-0.439V11.7C15.806,11.388,15.56,11.231,15.231,11.231z M19,3H5 C3.896,3,3,3.895,3,5v14c0,1.105,0.896,2,2,2h14c1.104,0,2-0.895,2-2V5C21,3.895,20.104,3,19,3z M10.274,16.3l-1.172-2.982 L7.937,16.3H5.938l2.051-4.301l-2.01-4.23h1.975l1.148,2.93l1.148-2.93h1.975l-2.004,4.23l2.051,4.301H10.274z M17.64,16.3 h-1.506l-0.076-0.645c-0.34,0.508-0.777,0.762-1.313,0.762c-0.664,0-1.171-0.254-1.521-0.762s-0.528-1.254-0.536-2.238v-0.48 c0-1.039,0.176-1.814,0.527-2.326s0.863-0.768,1.535-0.768c0.488,0,0.895,0.211,1.219,0.633V7.3h1.67V16.3z"></path>
                        </svg>
                        <svg xmlns="http://www.w3.org/2000/svg" x="0px" y="0px" width="100" height="100" viewBox="0 0 50 50">
                          <path d="M 25.783203 5.0195312 C 25.588141 5.0022187 25.390156 5.0024375 25.191406 5.0234375 C 24.394406 5.1104375 23.679734 5.5029531 23.177734 6.1269531 C 22.140734 7.4159531 22.346719 9.3087031 23.636719 10.345703 L 26.9375 13 L 9.9609375 13 C 8.3069375 13 6.9609375 14.346 6.9609375 16 C 6.9609375 17.654 8.3069375 19 9.9609375 19 L 17.396484 19 L 3.15625 30.509766 C 2.50925 31.032766 2.1055781 31.776516 2.0175781 32.603516 C 1.9305781 33.430516 2.1684062 34.243625 2.6914062 34.890625 C 3.2144063 35.537625 3.9581563 35.941297 4.7851562 36.029297 C 5.6121562 36.116297 6.4252656 35.878469 7.0722656 35.355469 L 13.998047 29.757812 C 14.577047 37.698812 21.963938 44 30.960938 44 C 40.334938 44 47.960938 37.159 47.960938 28.75 C 47.960938 23.554 45.051828 18.771359 40.173828 15.943359 L 27.396484 5.6699219 C 26.927734 5.2934219 26.368391 5.0714688 25.783203 5.0195312 z M 30.960938 20 C 35.922938 20 39.960938 23.364 39.960938 27.5 C 39.960938 31.636 35.922938 35 30.960938 35 C 25.998938 35 21.960937 31.636 21.960938 27.5 C 21.960938 23.364 25.998938 20 30.960938 20 z M 30.960938 22 A 6 5 0 0 0 30.960938 32 A 6 5 0 0 0 30.960938 22 z"></path>
                          </svg>
                          <svg xmlns="http://www.w3.org/2000/svg" x="0px" y="0px" width="100" height="100" viewBox="0 0 50 50">
                            <path d="M 25 2 C 12.318 2 2 12.317 2 25 C 2 37.683 12.318 48 25 48 C 37.682 48 48 37.683 48 25 C 48 12.317 37.682 2 25 2 z M 15.117188 17.082031 C 16.591187 17.082031 17.691703 18.136484 17.845703 19.396484 C 17.984703 20.531484 17.530484 21.513438 16.271484 22.148438 C 15.629484 22.474438 15.310937 22.457734 15.210938 22.302734 C 15.143937 22.198734 15.181547 22.024969 15.310547 21.917969 C 16.494547 20.928969 16.515953 20.116656 16.376953 18.972656 C 16.286953 18.236656 15.802766 17.765625 15.259766 17.765625 C 12.932766 17.765625 9.5945937 22.98425 10.058594 26.78125 C 10.239594 28.26125 11.148766 29.974609 13.009766 29.974609 C 13.629766 29.974609 14.286094 29.799813 14.871094 29.507812 C 15.892094 28.985813 16.470781 28.573437 17.050781 27.898438 C 16.907781 26.142437 18.41425 23.9375 20.65625 23.9375 C 21.62625 23.9375 22.428438 24.327422 22.523438 25.107422 C 22.642437 26.080422 21.814906 26.275391 21.503906 26.275391 C 21.231906 26.275391 20.795625 26.198312 20.765625 25.945312 C 20.732625 25.672313 21.352391 25.828078 21.275391 25.205078 C 21.227391 24.816078 20.823547 24.679687 20.435547 24.679688 C 19.039547 24.679688 18.268016 26.626938 18.416016 27.835938 C 18.483016 28.381937 18.763578 28.925781 19.267578 28.925781 C 19.674578 28.925781 20.260328 28.341375 20.486328 27.484375 C 20.629328 26.900375 21.182797 26.511719 21.591797 26.511719 C 21.804797 26.511719 21.952516 26.609219 21.978516 26.824219 C 21.987516 26.902219 21.980078 26.999234 21.955078 27.115234 C 21.908078 27.368234 21.714609 28.212719 21.724609 28.386719 C 21.731609 28.538719 21.818031 28.746094 22.082031 28.746094 C 22.291031 28.746094 23.061438 28.332359 23.773438 27.693359 C 23.997438 26.537359 24.272922 25.107141 24.294922 24.994141 C 24.381922 24.525141 24.550953 24.042969 25.501953 24.042969 C 25.696953 24.042969 25.843094 24.139047 25.871094 24.373047 C 25.880094 24.450047 25.872656 24.550016 25.847656 24.666016 L 25.582031 25.867188 C 26.415031 24.756187 27.712281 23.941406 28.488281 23.941406 C 28.818281 23.941406 29.072234 24.115797 29.115234 24.466797 C 29.139234 24.661797 29.082125 24.991328 28.953125 25.361328 C 28.677125 26.120328 28.366156 27.262141 28.160156 28.244141 C 28.116156 28.453141 28.189313 28.767578 28.570312 28.767578 C 28.875312 28.767578 29.854531 28.395562 30.644531 27.351562 C 30.639531 27.203563 30.636719 27.054344 30.636719 26.902344 C 30.636719 26.084344 30.694609 25.421547 30.849609 24.935547 C 31.004609 24.428547 31.645312 23.943359 32.070312 23.943359 C 32.284312 23.943359 32.439453 24.059969 32.439453 24.292969 C 32.439453 24.370969 32.419859 24.469406 32.380859 24.566406 C 32.090859 25.423406 31.935547 26.221531 31.935547 27.019531 C 31.935547 27.467531 32.032859 28.189594 32.130859 28.558594 C 32.149859 28.636594 32.169094 28.714844 32.246094 28.714844 C 32.382094 28.714844 33.292172 27.817563 33.951172 26.726562 C 33.368172 26.356562 33.039062 25.674891 33.039062 24.837891 C 33.039062 23.435891 33.8735 22.714844 34.6875 22.714844 C 35.3275 22.714844 35.908203 23.182187 35.908203 24.117188 C 35.908203 24.702188 35.675656 25.363859 35.347656 26.005859 C 35.347656 26.005859 35.483969 26.025391 35.542969 26.025391 C 36.046969 26.025391 36.434438 25.791109 36.648438 25.537109 C 36.745438 25.427109 36.835875 25.341016 36.921875 25.291016 C 37.570875 24.507016 38.522672 23.939453 39.638672 23.939453 C 40.588672 23.939453 41.408906 24.310844 41.503906 25.089844 C 41.624906 26.082844 40.777328 26.277344 40.486328 26.277344 C 40.196328 26.277344 39.759516 26.198312 39.728516 25.945312 C 39.697516 25.692312 40.333766 25.829562 40.259766 25.226562 C 40.211766 24.836562 39.805969 24.679688 39.417969 24.679688 C 38.117969 24.679688 37.224484 26.413453 37.396484 27.814453 C 37.465484 28.379453 37.726469 28.925781 38.230469 28.925781 C 38.637469 28.925781 39.246703 28.340375 39.470703 27.484375 C 39.614703 26.919375 40.164266 26.511719 40.572266 26.511719 C 40.766266 26.511719 40.934891 26.60975 40.962891 26.84375 C 40.976891 26.96075 40.929891 27.213906 40.712891 28.128906 C 40.623891 28.517906 40.605672 28.848094 40.638672 29.121094 C 40.708672 29.686094 40.967031 30.057484 41.207031 30.271484 C 41.294031 30.348484 41.344562 30.445859 41.351562 30.505859 C 41.371562 30.658859 41.254547 30.794922 41.060547 30.794922 C 41.002547 30.794922 40.925328 30.794859 40.861328 30.755859 C 39.862328 30.346859 39.447078 29.665484 39.330078 29.021484 C 38.945078 29.508484 38.435109 29.779297 37.912109 29.779297 C 37.020109 29.779297 36.149391 29.000281 36.025391 27.988281 C 35.974391 27.572281 36.024156 27.124547 36.160156 26.685547 C 35.798156 26.909547 35.407594 27.033203 35.058594 27.033203 C 34.941594 27.033203 34.846469 27.034625 34.730469 27.015625 C 33.858469 28.280625 32.946047 29.156875 32.248047 29.546875 C 31.958047 29.702875 31.687188 29.78125 31.492188 29.78125 C 31.336188 29.78125 31.162937 29.741469 31.085938 29.605469 C 30.904937 29.301469 30.783844 28.822766 30.714844 28.259766 C 29.795844 29.266766 28.506344 29.775391 27.902344 29.775391 C 27.203344 29.775391 26.822141 29.346125 26.744141 28.703125 C 26.718141 28.457125 26.725531 28.209844 26.769531 27.964844 C 27.000531 26.523844 27.531047 25.628469 27.498047 25.355469 C 27.488047 25.277469 27.443719 25.238281 27.386719 25.238281 C 26.940719 25.238281 25.374719 26.854781 25.136719 27.925781 L 24.951172 28.783203 C 24.830172 29.387203 24.237078 29.775391 23.830078 29.775391 C 23.636078 29.775391 23.488891 29.679844 23.462891 29.464844 C 23.454891 29.366844 23.463328 29.267875 23.486328 29.171875 L 23.572266 28.720703 C 22.727266 29.352703 21.816625 29.779297 21.390625 29.779297 C 20.807625 29.779297 20.481234 29.466047 20.365234 28.998047 C 19.980234 29.505047 19.470734 29.779297 18.927734 29.779297 C 18.234734 29.779297 17.567094 29.321578 17.246094 28.642578 C 16.789094 29.155578 16.249562 29.656312 15.601562 30.070312 C 14.645563 30.675313 13.580312 31.162109 12.320312 31.162109 C 11.157312 31.162109 10.169047 30.539203 9.6230469 30.033203 C 8.8130469 29.274203 8.3838125 28.144328 8.2578125 27.111328 C 7.8598125 23.859328 9.8402031 19.593609 12.908203 17.724609 C 13.612203 17.295609 14.400188 17.082031 15.117188 17.082031 z M 34.222656 23.466797 C 33.969656 23.466797 33.873047 23.817375 33.873047 24.109375 C 33.873047 24.655375 34.145141 25.220844 34.494141 25.589844 C 34.630141 25.219844 34.707031 24.849516 34.707031 24.478516 C 34.707031 23.778516 34.435656 23.466797 34.222656 23.466797 z"></path>
                            </svg>