<?xml version="1.0" encoding="UTF-8" standalone="no"?>
<svg
   viewBox="0 0 238.31 184.56"
   version="1.1"
   id="svg24"
   sodipodi:docname="Asset 6.svg"
   xmlns:inkscape="http://www.inkscape.org/namespaces/inkscape"
   xmlns:sodipodi="http://sodipodi.sourceforge.net/DTD/sodipodi-0.dtd"
   xmlns="http://www.w3.org/2000/svg"
   xmlns:svg="http://www.w3.org/2000/svg">
  <sodipodi:namedview
     id="namedview26"
     pagecolor="#ffffff"
     bordercolor="#000000"
     borderopacity="0.25"
     inkscape:showpageshadow="2"
     inkscape:pageopacity="0.0"
     inkscape:pagecheckerboard="0"
     inkscape:deskcolor="#d1d1d1" />
  <defs
     id="defs4">
    <style
       id="style2">.cls-1{fill:#fff;}.cls-2{fill:#21374d;}.cls-3{fill:#1c3142;}.cls-4{fill:#eee;}.cls-5{fill:#22c2ef;}</style>
  </defs>
  <g
     id="Layer_2"
     data-name="Layer 2">
    <g
       id="Layer_1-2"
       data-name="Layer 1">
      <path
         class="cls-1"
         d="M183.86,54.46Q160.49,31.11,137.13,7.75c-9.58-9.53-23.1-10.37-33.63-2-3.36,2.68-6.24,6-9.29,9Q51.07,57.89,8,101c-10.26,10.27-10.71,25.23-.79,35.31,15.33,15.58,30.86,31,46.33,46.39,2.49,2.49,3.9,2.43,6.43-.08,4.32-4.3,8.61-8.64,12.94-12.93,3.64-3.59,2.72-3.57,6.33-.1a37,37,0,0,0,4,3.52c7.34,5.28,16.81,5.05,24.4-.51,6.28-4.62,8.83-13.4,6.15-21.5-1.46-4.41-4.6-7.66-7.88-10.74-1.42-1.34-1.53-2.27,0-3.69q5.79-5.52,11.32-11.32c1.5-1.58,2.47-1.72,4.06-.05,4.62,4.83,9.41,9.51,14.16,14.22,2.53,2.51,3.95,2.5,6.42,0,2.16-2.14,4.27-4.35,6.51-6.41,5.35-4.92,14.63-4.8,19.44.19a13.91,13.91,0,0,1-.14,19.3c-2,2.15-4.17,4.21-6.25,6.32-2.57,2.58-2.57,4,.06,6.6q8.43,8.46,16.89,16.89c2.77,2.77,4.07,2.78,6.78.07q22.65-22.62,45.28-45.26c10.59-10.64,10.61-25.66,0-36.28Q207.16,77.69,183.86,54.46Z"
         id="path6" />
      <path
         class="cls-2"
         d="M183.86,54.46Q207.13,77.72,230.39,101c10.58,10.62,10.56,25.64,0,36.28q-22.61,22.66-45.28,45.26c-2.71,2.71-4,2.7-6.78-.07q-8.46-8.43-16.89-16.89c-2.63-2.64-2.63-4-.06-6.6,2.08-2.11,4.22-4.17,6.25-6.32a13.91,13.91,0,0,0,.14-19.3c-4.81-5-14.09-5.11-19.44-.19-2.24,2.06-4.35,4.27-6.51,6.41-2.47,2.46-3.89,2.47-6.42,0-4.75-4.71-9.54-9.39-14.16-14.22-1.59-1.67-2.56-1.53-4.06.05q-5.52,5.81-11.32,11.32c-1.48,1.42-1.37,2.35,0,3.69,3.28,3.08,6.42,6.33,7.88,10.74,2.68,8.1.13,16.88-6.15,21.5-7.59,5.56-17.06,5.79-24.4.51a37,37,0,0,1-4-3.52c-3.61-3.47-2.69-3.49-6.33.1-4.33,4.29-8.62,8.63-12.94,12.93-2.53,2.51-3.94,2.57-6.43.08-15.47-15.43-31-30.81-46.33-46.39-9.92-10.08-9.47-25,.79-35.31Q51.05,57.87,94.21,14.79c3.05-3,5.93-6.33,9.29-9,10.53-8.4,24-7.56,33.63,2Q160.55,31,183.86,54.46Zm21.44,30c-7.19-7.19-14.41-14.33-21.53-21.59-1.53-1.56-2.47-1.71-4.06-.05-4.68,4.89-9.53,9.63-14.34,14.39-2.3,2.29-3.69,2.29-6.05,0-2.09-2-4-4.13-6.16-6-5.9-5.33-14.69-5.26-19.75.06s-4.7,14.19.78,19.78c1.78,1.81,3.61,3.57,5.37,5.4,2.61,2.7,2.6,4,0,6.61q-7.15,7.22-14.37,14.37c-1,1-1.68,1.79-.33,3.11,4.19,4.08,8.3,8.23,12.4,12.39,1,1,1.75.95,2.76,0a61.93,61.93,0,0,1,6.22-5.59,20.13,20.13,0,0,1,23.54,0,19,19,0,0,1,6.62,21.79c-1.21,3.37-3.62,6.47-6,9.23-3.55,4.09-3.75,3.91.16,7.82,3,3,6.11,5.88,8.94,9,1.78,2,2.86,1.69,4.61-.07,13.88-14,27.87-27.93,41.81-41.9,8.54-8.56,8.57-19.57.07-28.12C219.09,98.2,212.18,91.32,205.3,84.44ZM32.93,153.6c7.3,7.3,14.64,14.56,21.87,21.94,1.55,1.58,2.47,1.32,3.87-.12C63.38,170.56,68.2,165.8,73,161c2.29-2.27,3.76-2.28,6.07-.06,2.14,2.06,4.15,4.25,6.33,6.24,5.67,5.18,14.48,5.07,19.54-.16,5.31-5.47,5.09-13.92-.51-19.62-1.78-1.82-3.6-3.59-5.38-5.4-2.83-2.87-2.84-4.2-.06-7,4.72-4.74,9.42-9.5,14.21-14.17,1.32-1.29,1.43-2.16,0-3.49-4-3.82-7.87-7.7-11.66-11.68-1.46-1.53-2.38-1.24-3.69.11A51.21,51.21,0,0,1,92.3,111,19.62,19.62,0,0,1,61.47,90.53c1.18-4.93,4.26-8.55,7.74-12,2.61-2.56,2.59-2.58.12-5.06C65.86,70,62.27,66.67,59,63.05c-1.79-1.95-2.85-1.74-4.61.05C40.59,77,26.73,90.79,12.91,104.62c-9.16,9.17-9,20.18.25,29.24C19.82,140.36,26.34,147,32.93,153.6Z"
         id="path8" />
      <path
         class="cls-3"
         d="M205.3,84.44c6.88,6.88,13.79,13.76,20.65,20.66,8.5,8.55,8.47,19.56-.07,28.12-13.94,14-27.93,27.88-41.81,41.9-1.75,1.76-2.83,2.06-4.61.07-2.83-3.15-6-6-8.94-9-3.91-3.91-3.71-3.73-.16-7.82,2.4-2.76,4.81-5.86,6-9.23a19,19,0,0,0-6.62-21.79,20.13,20.13,0,0,0-23.54,0,61.93,61.93,0,0,0-6.22,5.59c-1,1-1.76,1-2.76,0-4.1-4.16-8.21-8.31-12.4-12.39-1.35-1.32-.67-2.12.33-3.11q7.21-7.16,14.37-14.37c2.62-2.63,2.63-3.91,0-6.61-1.76-1.83-3.59-3.59-5.37-5.4-5.48-5.59-5.82-14.48-.78-19.78s13.85-5.39,19.75-.06c2.13,1.92,4.07,4.06,6.16,6,2.36,2.25,3.75,2.25,6.05,0,4.81-4.76,9.66-9.5,14.34-14.39,1.59-1.66,2.53-1.51,4.06.05C190.89,70.11,198.11,77.25,205.3,84.44Zm15,23.77c-.6-.6-1.16-1.24-1.81-1.78-1.4-1.18-3-1.45-4.34-.1s-1,3,.17,4.33c.72.84,1.54,1.58,2.3,2.38a8.44,8.44,0,0,1,.07,12.09c-.87.93-1.84,1.77-2.61,2.77-1.07,1.37-1.24,3.12.22,4a4.33,4.33,0,0,0,3.86.05C226.49,126.43,227.41,115.42,220.32,108.21Z"
         id="path10" />
      <path
         class="cls-4"
         d="M32.93,153.59c-6.59-6.58-13.11-13.23-19.77-19.73-9.26-9.06-9.41-20.07-.25-29.24C26.73,90.79,40.59,77,54.35,63.1c1.76-1.79,2.82-2,4.61-.05,3.31,3.62,6.9,7,10.37,10.46,2.47,2.48,2.49,2.5-.12,5.06-3.48,3.41-6.56,7-7.74,12A19.62,19.62,0,0,0,92.3,111a51.21,51.21,0,0,0,5.6-5.13c1.31-1.35,2.23-1.64,3.69-.11,3.79,4,7.7,7.86,11.66,11.68,1.39,1.33,1.28,2.2,0,3.49-4.79,4.67-9.49,9.43-14.21,14.17-2.78,2.79-2.77,4.12.06,7,1.78,1.81,3.6,3.58,5.38,5.4,5.6,5.7,5.82,14.15.51,19.62-5.06,5.23-13.87,5.34-19.54.16-2.18-2-4.19-4.18-6.33-6.24-2.31-2.22-3.78-2.21-6.07.06-4.81,4.76-9.63,9.52-14.34,14.38-1.4,1.44-2.32,1.7-3.87.12C47.57,168.16,40.23,160.9,32.93,153.59Zm-15.35-24c.92.92,1.5,1.54,2.12,2.11,1.42,1.28,3,1.77,4.5.27s1.15-3.07-.19-4.52c-.74-.8-1.54-1.57-2.29-2.36a8.47,8.47,0,0,1-.09-11.9c.86-.94,1.83-1.77,2.62-2.75a2.88,2.88,0,0,0,0-4.14c-1.26-1.27-2.76-1.06-4.15-.07C12,112,11,122.63,17.58,129.58Z"
         id="path12" />
      <path
         class="cls-5"
         d="M220.32,108.21c7.09,7.21,6.17,18.22-2.14,23.78a4.33,4.33,0,0,1-3.86-.05c-1.46-.92-1.29-2.67-.22-4,.77-1,1.74-1.84,2.61-2.77a8.44,8.44,0,0,0-.07-12.09c-.76-.8-1.58-1.54-2.3-2.38-1.18-1.37-1.52-3-.17-4.33s2.94-1.08,4.34.1C219.16,107,219.72,107.61,220.32,108.21Z"
         id="path14" />
      <path
         class="cls-5"
         d="M17.58,129.58c-6.56-7-5.59-17.59,2.5-23.36,1.39-1,2.89-1.2,4.15.07a2.88,2.88,0,0,1,0,4.14c-.79,1-1.76,1.81-2.62,2.75a8.47,8.47,0,0,0,.09,11.9c.75.79,1.55,1.56,2.29,2.36,1.34,1.45,1.62,3.07.19,4.52s-3.08,1-4.5-.27C19.08,131.12,18.5,130.5,17.58,129.58Z"
         id="path16" />
      <path
         class="cls-5"
         d="M176.15,54.59,134.9,13.34a21.7,21.7,0,0,0-30.68,0L63,54.59A2.4,2.4,0,0,0,63,58L79.54,74.58a1.64,1.64,0,0,1,0,2.34L70.25,86a13.77,13.77,0,0,0-.17,19.47h0a13.64,13.64,0,0,0,19.46.17c4-4,7.86-7.76,9.63-9.48a1.43,1.43,0,0,1,2,0l16.91,16.92a2.08,2.08,0,0,0,2.94,0L133.14,101a1.77,1.77,0,0,0,0-2.5l-2.88-2.87a20.41,20.41,0,0,1,0-28.85h0a19,19,0,0,1,26.82,0l3.84,3.83a1.85,1.85,0,0,0,2.61,0L176.15,58A2.41,2.41,0,0,0,176.15,54.59Z"
         id="path18" />
      <path
         d="M108.85,21.32c7.21-7.09,18.22-6.17,23.77,2.14a4.37,4.37,0,0,1,0,3.86c-.92,1.46-2.67,1.29-4,.22-1-.77-1.84-1.74-2.77-2.61a8.45,8.45,0,0,0-12.1.07c-.8.76-1.53,1.58-2.37,2.3-1.38,1.18-3,1.52-4.33.16s-1.09-2.93.09-4.33C107.61,22.48,108.25,21.92,108.85,21.32Z"
         id="path20" />
    </g>
  </g>
</svg>
